<?xml version="1.0" encoding="UTF-8" standalone="no"?>
<svg
   xmlns:dc="http://purl.org/dc/elements/1.1/"
   xmlns:cc="http://creativecommons.org/ns#"
   xmlns:rdf="http://www.w3.org/1999/02/22-rdf-syntax-ns#"
   xmlns:svg="http://www.w3.org/2000/svg"
   xmlns="http://www.w3.org/2000/svg"
   viewBox="0 0 816 1056"
   height="1056"
   width="816"
   xml:space="preserve"
   id="svg2"
   version="1.1"><metadata
     id="metadata8"><rdf:RDF><cc:Work
         rdf:about=""><dc:format>image/svg+xml</dc:format><dc:type
           rdf:resource="http://purl.org/dc/dcmitype/StillImage" /></cc:Work></rdf:RDF></metadata><defs
     id="defs6"><clipPath
       id="clipPath18"
       clipPathUnits="userSpaceOnUse"><path
         style="clip-rule:evenodd"
         id="path16"
         d="M 9.12e-6,0 H 612.00001 V 792 H 9.12e-6 Z" /></clipPath><clipPath
       id="clipPath26"
       clipPathUnits="userSpaceOnUse"><path
         style="clip-rule:evenodd"
         id="path24"
         d="M 9.12e-6,0 H 612.00001 V 792 H 9.12e-6 Z" /></clipPath><clipPath
       id="clipPath38"
       clipPathUnits="userSpaceOnUse"><path
         style="clip-rule:evenodd"
         id="path36"
         d="M 9.12e-6,0 H 612.00001 V 792 H 9.12e-6 Z" /></clipPath><clipPath
       id="clipPath46"
       clipPathUnits="userSpaceOnUse"><path
         style="clip-rule:evenodd"
         id="path44"
         d="M 9.12e-6,0 H 612.00001 V 792 H 9.12e-6 Z" /></clipPath><clipPath
       id="clipPath58"
       clipPathUnits="userSpaceOnUse"><path
         style="clip-rule:evenodd"
         id="path56"
         d="M 9.12e-6,0 H 612.00001 V 792 H 9.12e-6 Z" /></clipPath><clipPath
       id="clipPath70"
       clipPathUnits="userSpaceOnUse"><path
         style="clip-rule:evenodd"
         id="path68"
         d="M 9.12e-6,0 H 612.00001 V 792 H 9.12e-6 Z" /></clipPath><clipPath
       id="clipPath82"
       clipPathUnits="userSpaceOnUse"><path
         style="clip-rule:evenodd"
         id="path80"
         d="M 9.12e-6,0 H 612.00001 V 792 H 9.12e-6 Z" /></clipPath><clipPath
       id="clipPath94"
       clipPathUnits="userSpaceOnUse"><path
         style="clip-rule:evenodd"
         id="path92"
         d="M 9.12e-6,0 H 612.00001 V 792 H 9.12e-6 Z" /></clipPath><clipPath
       id="clipPath106"
       clipPathUnits="userSpaceOnUse"><path
         style="clip-rule:evenodd"
         id="path104"
         d="M 9.12e-6,0 H 612.00001 V 792 H 9.12e-6 Z" /></clipPath><clipPath
       id="clipPath118"
       clipPathUnits="userSpaceOnUse"><path
         style="clip-rule:evenodd"
         id="path116"
         d="M 9.12e-6,0 H 612.00001 V 792 H 9.12e-6 Z" /></clipPath><clipPath
       id="clipPath130"
       clipPathUnits="userSpaceOnUse"><path
         style="clip-rule:evenodd"
         id="path128"
         d="M 9.12e-6,0 H 612.00001 V 792 H 9.12e-6 Z" /></clipPath><clipPath
       id="clipPath142"
       clipPathUnits="userSpaceOnUse"><path
         style="clip-rule:evenodd"
         id="path140"
         d="M 9.12e-6,0 H 612.00001 V 792 H 9.12e-6 Z" /></clipPath><clipPath
       id="clipPath154"
       clipPathUnits="userSpaceOnUse"><path
         style="clip-rule:evenodd"
         id="path152"
         d="M 9.12e-6,0 H 612.00001 V 792 H 9.12e-6 Z" /></clipPath><clipPath
       id="clipPath166"
       clipPathUnits="userSpaceOnUse"><path
         style="clip-rule:evenodd"
         id="path164"
         d="M 9.12e-6,0 H 612.00001 V 792 H 9.12e-6 Z" /></clipPath><clipPath
       id="clipPath178"
       clipPathUnits="userSpaceOnUse"><path
         style="clip-rule:evenodd"
         id="path176"
         d="M 9.12e-6,0 H 612.00001 V 792 H 9.12e-6 Z" /></clipPath><clipPath
       id="clipPath190"
       clipPathUnits="userSpaceOnUse"><path
         style="clip-rule:evenodd"
         id="path188"
         d="M 9.12e-6,0 H 612.00001 V 792 H 9.12e-6 Z" /></clipPath><clipPath
       id="clipPath202"
       clipPathUnits="userSpaceOnUse"><path
         style="clip-rule:evenodd"
         id="path200"
         d="M 9.12e-6,0 H 612.00001 V 792 H 9.12e-6 Z" /></clipPath><clipPath
       id="clipPath214"
       clipPathUnits="userSpaceOnUse"><path
         style="clip-rule:evenodd"
         id="path212"
         d="M 9.12e-6,0 H 612.00001 V 792 H 9.12e-6 Z" /></clipPath><clipPath
       id="clipPath222"
       clipPathUnits="userSpaceOnUse"><path
         style="clip-rule:evenodd"
         id="path220"
         d="M 9.12e-6,0 H 612.00001 V 792 H 9.12e-6 Z" /></clipPath><clipPath
       id="clipPath234"
       clipPathUnits="userSpaceOnUse"><path
         style="clip-rule:evenodd"
         id="path232"
         d="M 9.12e-6,0 H 612.00001 V 792 H 9.12e-6 Z" /></clipPath><clipPath
       id="clipPath246"
       clipPathUnits="userSpaceOnUse"><path
         style="clip-rule:evenodd"
         id="path244"
         d="M 9.12e-6,0 H 612.00001 V 792 H 9.12e-6 Z" /></clipPath><clipPath
       id="clipPath258"
       clipPathUnits="userSpaceOnUse"><path
         style="clip-rule:evenodd"
         id="path256"
         d="M 9.12e-6,0 H 612.00001 V 792 H 9.12e-6 Z" /></clipPath><clipPath
       id="clipPath266"
       clipPathUnits="userSpaceOnUse"><path
         style="clip-rule:evenodd"
         id="path264"
         d="M 9.12e-6,0 H 612.00001 V 792 H 9.12e-6 Z" /></clipPath></defs><g
     transform="matrix(1.3333333,0,0,-1.3333333,0,1056)"
     id="g10"><g
       id="g12"><g
         clip-path="url(#clipPath18)"
         id="g14" /></g><g
       id="g20"><g
         clip-path="url(#clipPath26)"
         id="g22"><text
           id="text30"
           style="font-variant:normal;font-weight:normal;font-size:9.96000004px;font-family:TimesNewRomanPSMT;-inkscape-font-specification:TimesNewRomanPSMT;writing-mode:lr-tb;fill:#000000;fill-opacity:1;fill-rule:nonzero;stroke:none"
           transform="matrix(1,0,0,-1,90.024,699.34)"><tspan
             id="tspan28"
             y="0"
             x="0 7.1911201 12.12132 14.9898 19.91004 24.332279 29.27244 32.140919 34.909801 39.332039 43.75428 46.523159 49.292042 54.331799 59.361599 64.899361 69.321602 72.090477 74.85936 79.281601">AuthenticationFailed</tspan></text>
</g></g><g
       id="g32"><g
         clip-path="url(#clipPath38)"
         id="g34" /></g><g
       id="g40"><g
         clip-path="url(#clipPath46)"
         id="g42"><text
           id="text50"
           style="font-variant:normal;font-weight:normal;font-size:9.96000004px;font-family:TimesNewRomanPSMT;-inkscape-font-specification:TimesNewRomanPSMT;writing-mode:lr-tb;fill:#000000;fill-opacity:1;fill-rule:nonzero;stroke:none"
           transform="matrix(1,0,0,-1,90.024,687.94)"><tspan
             id="tspan48"
             y="0"
             x="0 5.5377598 9.96 13.30656 18.226801 22.64904 26.01552 28.52544 31.76244 36.184681 38.95356 41.722439 46.14468 51.194401 53.704319 56.473202 61.493038 64.00296 68.425201 73.365356 76.233841 81.154083 85.705803 90.626038 93.39492 96.163803 100.58604 105.00828 107.77716 112.1994 114.7392 117.60768 122.63748 127.05972 129.58955 132.93613 137.35835 142.40808 147.32832 151.75056 155.625 158.39388 160.88388 163.3938 172.24825 176.70036 181.62061 186.04285 188.57268 192.52679 197.44704 200.79359 205.21584 207.74568 210.51456 215.42484 219.84708 222.49644 227.41669 231.83891 234.72733 239.64755 244.19928 246.7092 251.739 254.976 257.48593 264.67703 269.60724 272.47571 277.39597 282.42575 285.77231 288.5412 292.96344 297.38568 300.15457 302.92343 307.9632 312.88345 315.39337 320.3136 324.73584 329.18796 334.21777 338.64001 342.00647 344.51639 347.28528 351.11987 353.74933 356.98633 362.01611 365.36267 373.04184 377.46408 382.51379 385.02371 389.44595 394.49567 397.84225 401.18881 405.61105 410.06317 412.83203 415.60092 420.38171">Server failed to authenticate the request. Make sure the value of Authorization header is formed correctly </tspan></text>
</g></g><g
       id="g52"><g
         clip-path="url(#clipPath58)"
         id="g54"><text
           id="text62"
           style="font-variant:normal;font-weight:normal;font-size:9.96000004px;font-family:TimesNewRomanPSMT;-inkscape-font-specification:TimesNewRomanPSMT;writing-mode:lr-tb;fill:#000000;fill-opacity:1;fill-rule:nonzero;stroke:none"
           transform="matrix(1,0,0,-1,90.024,676.42)"><tspan
             id="tspan60"
             y="0"
             x="0 2.7688799 7.6791601 12.1014 14.9898 19.91004 24.93984 27.708719 32.728561 37.6488 40.158718 42.927601 47.837879 52.26012 54.909481 58.75404 61.62252 66.542763 71.462997 75.885239 78.773643 83.693878 87.040443 91.462677 93.992523 96.502441 103.10592 107.52816 112.57788 117.49812 122.04984 125.8944 128.66328 131.99988 137.02968 139.79855 144.81841 149.84821 154.27045 159.32016 164.34996 169.2702 173.69244">including the signature. RequestId:16a158ac</tspan></text>
</g></g><g
       id="g64"><g
         clip-path="url(#clipPath70)"
         id="g66"><text
           id="text74"
           style="font-variant:normal;font-weight:normal;font-size:9.96000004px;font-family:TimesNewRomanPSMT;-inkscape-font-specification:TimesNewRomanPSMT;writing-mode:lr-tb;fill:#000000;fill-opacity:1;fill-rule:nonzero;stroke:none"
           transform="matrix(1,0,0,-1,268.37,676.42)"><tspan
             id="tspan72"
             y="0"
             x="0">-</tspan></text>
</g></g><g
       id="g76"><g
         clip-path="url(#clipPath82)"
         id="g78"><text
           id="text86"
           style="font-variant:normal;font-weight:normal;font-size:9.96000004px;font-family:TimesNewRomanPSMT;-inkscape-font-specification:TimesNewRomanPSMT;writing-mode:lr-tb;fill:#000000;fill-opacity:1;fill-rule:nonzero;stroke:none"
           transform="matrix(1,0,0,-1,271.61,676.42)"><tspan
             id="tspan84"
             y="0"
             x="0 5.04 10.08 15.12">b01e</tspan></text>
</g></g><g
       id="g88"><g
         clip-path="url(#clipPath94)"
         id="g90"><text
           id="text98"
           style="font-variant:normal;font-weight:normal;font-size:9.96000004px;font-family:TimesNewRomanPSMT;-inkscape-font-specification:TimesNewRomanPSMT;writing-mode:lr-tb;fill:#000000;fill-opacity:1;fill-rule:nonzero;stroke:none"
           transform="matrix(1,0,0,-1,291.17,676.42)"><tspan
             id="tspan96"
             y="0"
             x="0">-</tspan></text>
</g></g><g
       id="g100"><g
         clip-path="url(#clipPath106)"
         id="g102"><text
           id="text110"
           style="font-variant:normal;font-weight:normal;font-size:9.96000004px;font-family:TimesNewRomanPSMT;-inkscape-font-specification:TimesNewRomanPSMT;writing-mode:lr-tb;fill:#000000;fill-opacity:1;fill-rule:nonzero;stroke:none"
           transform="matrix(1,0,0,-1,294.41,676.42)"><tspan
             id="tspan108"
             y="0"
             x="0 5.04 10.08 15.12">008e</tspan></text>
</g></g><g
       id="g112"><g
         clip-path="url(#clipPath118)"
         id="g114"><text
           id="text122"
           style="font-variant:normal;font-weight:normal;font-size:9.96000004px;font-family:TimesNewRomanPSMT;-inkscape-font-specification:TimesNewRomanPSMT;writing-mode:lr-tb;fill:#000000;fill-opacity:1;fill-rule:nonzero;stroke:none"
           transform="matrix(1,0,0,-1,313.97,676.42)"><tspan
             id="tspan120"
             y="0"
             x="0">-</tspan></text>
</g></g><g
       id="g124"><g
         clip-path="url(#clipPath130)"
         id="g126"><text
           id="text134"
           style="font-variant:normal;font-weight:normal;font-size:9.96000004px;font-family:TimesNewRomanPSMT;-inkscape-font-specification:TimesNewRomanPSMT;writing-mode:lr-tb;fill:#000000;fill-opacity:1;fill-rule:nonzero;stroke:none"
           transform="matrix(1,0,0,-1,317.21,676.42)"><tspan
             id="tspan132"
             y="0"
             x="0 5.0297999 10.0596 14.97984">6691</tspan></text>
</g></g><g
       id="g136"><g
         clip-path="url(#clipPath142)"
         id="g138"><text
           id="text146"
           style="font-variant:normal;font-weight:normal;font-size:9.96000004px;font-family:TimesNewRomanPSMT;-inkscape-font-specification:TimesNewRomanPSMT;writing-mode:lr-tb;fill:#000000;fill-opacity:1;fill-rule:nonzero;stroke:none"
           transform="matrix(1,0,0,-1,337.27,676.42)"><tspan
             id="tspan144"
             y="0"
             x="0">-</tspan></text>
</g></g><g
       id="g148"><g
         clip-path="url(#clipPath154)"
         id="g150"><text
           id="text158"
           style="font-variant:normal;font-weight:normal;font-size:9.96000004px;font-family:TimesNewRomanPSMT;-inkscape-font-specification:TimesNewRomanPSMT;writing-mode:lr-tb;fill:#000000;fill-opacity:1;fill-rule:nonzero;stroke:none"
           transform="matrix(1,0,0,-1,340.51,676.42)"><tspan
             id="tspan156"
             y="0"
             x="0 4.4222398 9.4719601 14.50176 18.924 23.973721 29.003519 33.923759 38.95356 43.98336 48.903599 53.933399 58.9632 61.36356 67.598518 70.367401 77.917084 82.339317 85.1082 90.147957 95.177757 100.20756">a86ed3000000 Time:2025</tspan></text>
</g></g><g
       id="g160"><g
         clip-path="url(#clipPath166)"
         id="g162"><text
           id="text170"
           style="font-variant:normal;font-weight:normal;font-size:9.96000004px;font-family:TimesNewRomanPSMT;-inkscape-font-specification:TimesNewRomanPSMT;writing-mode:lr-tb;fill:#000000;fill-opacity:1;fill-rule:nonzero;stroke:none"
           transform="matrix(1,0,0,-1,445.87,676.42)"><tspan
             id="tspan168"
             y="0"
             x="0">-</tspan></text>
</g></g><g
       id="g172"><g
         clip-path="url(#clipPath178)"
         id="g174"><text
           id="text182"
           style="font-variant:normal;font-weight:normal;font-size:9.96000004px;font-family:TimesNewRomanPSMT;-inkscape-font-specification:TimesNewRomanPSMT;writing-mode:lr-tb;fill:#000000;fill-opacity:1;fill-rule:nonzero;stroke:none"
           transform="matrix(1,0,0,-1,449.11,676.42)"><tspan
             id="tspan180"
             y="0"
             x="0 5.04">04</tspan></text>
</g></g><g
       id="g184"><g
         clip-path="url(#clipPath190)"
         id="g186"><text
           id="text194"
           style="font-variant:normal;font-weight:normal;font-size:9.96000004px;font-family:TimesNewRomanPSMT;-inkscape-font-specification:TimesNewRomanPSMT;writing-mode:lr-tb;fill:#000000;fill-opacity:1;fill-rule:nonzero;stroke:none"
           transform="matrix(1,0,0,-1,459.22,676.42)"><tspan
             id="tspan192"
             y="0"
             x="0">-</tspan></text>
</g></g><g
       id="g196"><g
         clip-path="url(#clipPath202)"
         id="g198"><text
           id="text206"
           style="font-variant:normal;font-weight:normal;font-size:9.96000004px;font-family:TimesNewRomanPSMT;-inkscape-font-specification:TimesNewRomanPSMT;writing-mode:lr-tb;fill:#000000;fill-opacity:1;fill-rule:nonzero;stroke:none"
           transform="matrix(1,0,0,-1,90.024,664.9)"><tspan
             id="tspan204"
             y="0"
             x="0 5.0297999 9.9500399 16.184999 21.2148 26.2446 28.884001 33.913799 38.9436 41.712479 46.732319 51.652561 54.162479 59.19228 64.112518 69.142319 74.172119 79.092361 84.122162 89.151962">08T14:18:37.0313261Z</tspan></text>
</g></g><g
       id="g208"><g
         clip-path="url(#clipPath214)"
         id="g210" /></g><g
       id="g216"><g
         clip-path="url(#clipPath222)"
         id="g218"><text
           id="text226"
           style="font-variant:normal;font-weight:normal;font-size:9.96000004px;font-family:TimesNewRomanPSMT;-inkscape-font-specification:TimesNewRomanPSMT;writing-mode:lr-tb;fill:#000000;fill-opacity:1;fill-rule:nonzero;stroke:none"
           transform="matrix(1,0,0,-1,90.024,653.38)"><tspan
             id="tspan224"
             y="0"
             x="0 5.5377598 8.3066397 13.30656 18.226801 22.64904 27.698759 30.208679 34.63092 39.571079 44.60088 47.369759 50.835838 55.636559 58.146481 60.915359 63.77388 71.453041 75.875282">Signed expiry time </tspan></text>
</g></g><g
       id="g228"><g
         clip-path="url(#clipPath234)"
         id="g230"><text
           id="text238"
           style="font-variant:normal;font-weight:normal;font-size:9.96000004px;font-family:TimesNewRomanPSMT;-inkscape-font-specification:TimesNewRomanPSMT;writing-mode:lr-tb;fill:#000000;fill-opacity:1;fill-rule:nonzero;stroke:none"
           transform="matrix(1,0,0,-1,168.5,653.38)"><tspan
             id="tspan236"
             y="0"
             x="0 3.34656 9.5815201 14.50176 18.924 21.45384 23.96376 28.993561 34.023361 36.533279 43.614841 48.644642 51.991199 54.501122 59.530918 64.451157 69.480957 74.510757 76.911118 81.940918 86.970718 89.739601 94.759438 99.789238 102.42864 107.45844 112.48824 114.99816 122.18928 130.95409 137.18904 140.5356 143.04552 150.60516 155.63496 159.47952 162.2484 164.86787 169.89767 174.31992 176.84976 181.272 184.52892 187.29781 191.72005 195.07655 197.58649 201.43105 204.19992 209.21976 214.14 218.56224 223.61195 226.12189 229.96645 232.73532 237.15756 240.51408 243.28296 245.77296 248.54184 251.42027 259.09943 263.52167 266.05151 269.39807 275.63303 280.55328 284.97552 287.50537 290.01529 295.04507 300.07489 302.58481 309.66635 314.69617 318.04272 320.55264 325.58243 330.50269 335.53247 340.56229">[Tue, 08 Apr 2025 06:25:19 GMT] must be after signed start time [Tue, 08 Apr 2025 </tspan></text>
</g></g><g
       id="g240"><g
         clip-path="url(#clipPath246)"
         id="g242"><text
           id="text250"
           style="font-variant:normal;font-weight:normal;font-size:9.96000004px;font-family:TimesNewRomanPSMT;-inkscape-font-specification:TimesNewRomanPSMT;writing-mode:lr-tb;fill:#000000;fill-opacity:1;fill-rule:nonzero;stroke:none"
           transform="matrix(1,0,0,-1,90.024,641.86)"><tspan
             id="tspan248"
             y="0"
             x="0 5.0297999 10.0596 12.82848 17.84832 22.87812 25.646999 30.55728 35.587078 38.097 45.28812 54.052921 60.28788">14:18:37 GMT]</tspan></text>
</g></g><g
       id="g252"><g
         clip-path="url(#clipPath258)"
         id="g254" /></g><g
       id="g260"><g
         clip-path="url(#clipPath266)"
         id="g262" /></g></g></svg>